:FULLY-SPECIFIED
:FORCE-ALL-JOINTS-BE-3DOF
:DEGREES
476
root 3.66067 16.3297 -7.15359 4.61128 59.7147 -6.86705
lfemur -39.4776 -1.74809 -21.736
ltibia 49.5325 -0 0
lfoot -20.2398 0.507691 0.00498422
ltoes 16.8726 -0 0
rfemur -21.1074 2.4067 9.90349
rtibia 69.4174 -0 0
rfoot 25.804 12.8014 0.119787
rtoes -26.52 0 0
lowerback 2.14873 -0.0144297 1.65118
upperback -0.356756 0.051996 1.3182
thorax -1.56837 0.0201996 0.424632
lowerneck -8.50129 -6.85465 0.469895
upperneck 3.44216 -9.27189 1.36159
head 2.60869 -4.55612 -0.0956617
lclavicle 0 0 0
lhumerus -48.6417 -27.1743 108.136
lradius 55.9183 -0 0
lwrist 5.00507 0 0
lhand -9.28211 -6.15313 0.075603
lfingers 0 0 0
lthumb 16.6714 23.1034 0.0581342
rclavicle 0 0 0
rhumerus -55.0981 2.4914 -83.737
rradius 63.0637 -0 0
rwrist 14.6815 0 0
rhand -28.6158 -27.0123 0.0263617
rfingers 0 0 0
rthumb -1.98067 -56.9702 0.0255279
477
root 3.73054 16.3476 -7.10955 4.78503 61.0743 -6.42596
lfemur -38.6661 -2.76142 -21.9301
ltibia 49.0511 -0 0
lfoot -20.3727 0.1199 0.00750307
ltoes 17.1174 -0 0
rfemur -23.6237 2.0324 9.92642
rtibia 71.2211 -0 0
rfoot 24.7866 11.5847 0.180384
rtoes -25.1204 0 0
lowerback 2.24793 -0.0685164 1.442
upperback -0.343928 -0.0262954 1.21117
thorax -1.61024 -0.0177772 0.435576
lowerneck -8.50416 -6.98797 0.350642
upperneck 3.61856 -9.44483 1.42854
head 2.68103 -4.63951 -0.0692581
lclavicle 0 0 0
lhumerus -48.7016 -27.5276 108.477
lradius 55.9513 -0 0
lwrist 4.96547 0 0
lhand -8.06138 -5.51301 0.113838
lfingers 0 0 0
lthumb 17.8442 23.6158 0.0875317
rclavicle 0 0 0
rhumerus -54.4543 3.36923 -84.608
rradius 63.4306 -0 0
rwrist 15.4408 0 0
rhand -27.8952 -26.6341 0.0396868
rfingers 0 0 0
rthumb -1.28463 -56.5909 0.0384314
478
root 3.7953 16.3637 -7.06783 5.01594 62.5957 -5.89765
lfemur -37.7524 -3.89267 -22.1648
ltibia 48.5122 -0 0
lfoot -20.5216 -0.314322 0.0092557
ltoes 17.3915 -0 0
rfemur -26.4408 1.61494 9.97157
rtibia 73.2406 -0 0
rfoot 23.6462 10.2214 0.222571
rtoes -23.5533 0 0
lowerback 2.35924 -0.128648 1.20766
upperback -0.329391 -0.113931 1.0913
thorax -1.65713 -0.0602909 0.447864
lowerneck -8.50704 -7.13726 0.21708
upperneck 3.81595 -9.63871 1.50291
head 2.762 -4.73291 -0.0398151
lclavicle 0 0 0
lhumerus -48.7717 -27.9229 108.86
lradius 55.9883 -0 0
lwrist 4.92112 0 0
lhand -6.69409 -4.79548 0.140454
lfingers 0 0 0
lthumb 19.1577 24.19 0.107994
rclavicle 0 0 0
rhumerus -53.7486 4.36355 -85.5726
rradius 63.8414 -0 0
rwrist 16.291 0 0
rhand -27.0881 -26.2104 0.0489596
rfingers 0 0 0
rthumb -0.505186 -56.1661 0.0474107
479
root 3.85412 16.3779 -7.02919 5.30671 64.1926 -5.29658
lfemur -36.7862 -5.07664 -22.4311
ltibia 47.946 -0 0
lfoot -20.6779 -0.770395 0.00988174
ltoes 17.6794 -0 0
rfemur -29.3995 1.17942 10.041
rtibia 75.3618 -0 0
rfoot 22.4476 8.78885 0.237645
rtoes -21.9073 0 0
lowerback 2.47642 -0.191314 0.961413
upperback -0.313925 -0.205943 0.965373
thorax -1.70639 -0.104933 0.460808
lowerneck -8.5097 -7.29407 0.0767592
upperneck 4.02312 -9.84261 1.58033
head 2.847 -4.83106 -0.00902899
lclavicle 0 0 0
lhumerus -48.8489 -28.3377 109.266
lradius 56.0271 -0 0
lwrist 4.87454 0 0
lhand -5.25777 -4.04138 0.149963
lfingers 0 0 0
lthumb 20.5375 24.7935 0.115304
rclavicle 0 0 0
rhumerus -53.0245 5.42044 -86.5739
rradius 64.2729 -0 0
rwrist 17.1839 0 0
rhand -26.2404 -25.7653 0.0522721
rfingers 0 0 0
rthumb 0.313529 -55.7198 0.0506183
480
root 3.90618 16.3903 -6.99441 5.6539 65.7783 -4.6429
lfemur -35.8184 -6.2489 -22.7162
ltibia 47.3833 -0 0
lfoot -20.8334 -1.22374 0.00927056
ltoes 17.9656 -0 0
rfemur -32.3406 0.750638 10.1322
rtibia 77.4703 -0 0
rfoot 21.2563 7.36488 0.222929
rtoes -20.2712 0 0
lowerback 2.59315 -0.253105 0.71651
upperback -0.298352 -0.297371 0.840178
thorax -1.75537 -0.149297 0.473712
lowerneck -8.51195 -7.44994 -0.0627637
upperneck 4.2289 -10.0456 1.65659
head 2.93145 -4.92867 0.0214323
lclavicle 0 0 0
lhumerus -48.9292 -28.7494 109.67
lradius 56.0657 -0 0
lwrist 4.82824 0 0
lhand -3.83004 -3.2918 0.14068
lfingers 0 0 0
lthumb 21.9089 25.3934 0.108167
rclavicle 0 0 0
rhumerus -52.3218 6.48327 -87.5578
rradius 64.7018 -0 0
rwrist 18.0715 0 0
rhand -25.3978 -25.3229 0.0490382
rfingers 0 0 0
rthumb 1.12734 -55.2762 0.0474868
481
root 3.95063 16.4006 -6.96423 6.04359 67.2668 -3.96684
lfemur -34.9014 -7.34601 -23.0029
ltibia 46.8545 -0 0
lfoot -20.9794 -1.64977 0.00757537
ltoes 18.2346 -0 0
rfemur -35.1049 0.352444 10.2379
rtibia 79.4517 -0 0
rfoot 20.1374 6.02725 0.182123
rtoes -18.7337 0 0
lowerback 2.7031 -0.310718 0.486245
upperback -0.283534 -0.383259 0.722501
thorax -1.8014 -0.190978 0.485873
lowerneck -8.51372 -7.59643 -0.193922
upperneck 4.42215 -10.2365 1.72763
head 3.01078 -5.02043 0.0499311
lclavicle 0 0 0
lhumerus -49.008 -29.1359 110.053
lradius 56.1019 -0 0
lwrist 4.78473 0 0
lhand -2.48855 -2.58779 0.114936
lfingers 0 0 0
lthumb 23.1977 25.9569 0.0883756
rclavicle 0 0 0
rhumerus -51.6769 7.49281 -88.4724
rradius 65.1049 -0 0
rwrist 18.9057 0 0
rhand -24.6059 -24.9072 0.0400693
rfingers 0 0 0
rthumb 1.89208 -54.8594 0.0388018
482
root 3.98665 16.4088 -6.93944 6.4466 68.5723 -3.31357
lfemur -34.0895 -8.30562 -23.27
ltibia 46.3901 -0 0
lfoot -21.1077 -2.0239 0.00519105
ltoes 18.4708 -0 0
rfemur -37.5331 0.00730259 10.3464
rtibia 81.1919 -0 0
rfoot 19.1557 4.85338 0.124761
rtoes -17.3834 0 0
lowerback 2.79985 -0.36095 0.283933
upperback -0.270375 -0.458661 0.619137
thorax -1.84183 -0.227574 0.496581
lowerneck -8.515 -7.72508 -0.309139
upperneck 4.59176 -10.4045 1.78952
head 3.08042 -5.10106 0.074857
lclavicle 0 0 0
lhumerus -49.0799 -29.475 110.391
lradius 56.1338 -0 0
lwrist 4.74652 0 0
lhand -1.31077 -1.97017 0.078742
lfingers 0 0 0
lthumb 24.3292 26.4512 0.0605477
rclavicle 0 0 0
rhumerus -51.1227 8.38769 -89.2679
rradius 65.4589 -0 0
rwrist 19.6382 0 0
rhand -23.9106 -24.5422 0.0274558
rfingers 0 0 0
rthumb 2.56362 -54.4935 0.0265874
483
root 4.0134 16.4148 -6.92078 6.81532 69.6097 -2.74651
lfemur -33.4388 -9.06636 -23.4927
ltibia 46.0206 -0 0
lfoot -21.2097 -2.32157 0.00269586
ltoes 18.6587 -0 0
rfemur -39.4656 -0.263822 10.4432
rtibia 82.5763 -0 0
rfoot 18.3757 3.92024 0.0647706
rtoes -16.3091 0 0
lowerback 2.87695 -0.400671 0.122909
upperback -0.259809 -0.518636 0.536885
thorax -1.87401 -0.256685 0.505119
lowerneck -8.51583 -7.82744 -0.400831
upperneck 4.72664 -10.5382 1.83841
head 3.13581 -5.16522 0.0946205
lclavicle 0 0 0
lhumerus -49.1389 -29.7444 110.661
lradius 56.1591 -0 0
lwrist 4.71611 0 0
lhand -0.374036 -1.47939 0.040883
lfingers 0 0 0
lthumb 25.2293 26.8441 0.0314376
rclavicle 0 0 0
rhumerus -50.6898 9.10504 -89.8959
rradius 65.7405 -0 0
rwrist 20.2211 0 0
rhand -23.3575 -24.252 0.0142576
rfingers 0 0 0
rthumb 3.09784 -54.2025 0.0138067
